<svg width="104" height="148" viewBox="0 0 104 148" fill="none" xmlns="http://www.w3.org/2000/svg">
<g clip-path="url(#clip0_536_203)">
<path d="M0.600434 147.562L0.491699 121.263L52.3747 82.3983L0.600434 147.562Z" fill="url(#paint0_linear_536_203)"/>
<path d="M0.543617 117.181L0.392334 96.7767L52.3604 78.7581L0.543617 117.181Z" fill="url(#paint1_linear_536_203)"/>
<path d="M0.378287 93.6023L0.307373 75.9184L51.8027 75.7124L0.378287 93.6023Z" fill="url(#paint2_linear_536_203)"/>
<path d="M0.293082 72.2922L0.222168 55.0602L51.9988 71.6321L0.293082 72.2922Z" fill="url(#paint3_linear_536_203)"/>
<path d="M0.207899 51.434L0.122803 31.0299L51.7694 67.5518L0.207899 51.434Z" fill="url(#paint4_linear_536_203)"/>
<path d="M0.106371 26.4954L0 0.648438L52.3841 63.0149L0.106371 26.4954Z" fill="url(#paint5_linear_536_203)"/>
<path d="M0.676032 142.871L0.725671 148L102.232 74.3102L104 73.1842L102.222 72.0722L0.122903 0L0.111084 4.3285L96.164 73.2146L0.676032 142.871Z" fill="white"/>
</g>
<defs>
<linearGradient id="paint0_linear_536_203" x1="52.5059" y1="116.437" x2="0.464999" y2="116.648" gradientUnits="userSpaceOnUse">
<stop stop-color="#FD9C3D"/>
<stop offset="1" stop-color="#C0266E"/>
</linearGradient>
<linearGradient id="paint1_linear_536_203" x1="52.4366" y1="99.349" x2="0.395648" y2="99.5599" gradientUnits="userSpaceOnUse">
<stop stop-color="#ED5385"/>
<stop offset="1" stop-color="#6D37D7"/>
</linearGradient>
<linearGradient id="paint2_linear_536_203" x1="51.8365" y1="85.9792" x2="0.341584" y2="86.1879" gradientUnits="userSpaceOnUse">
<stop stop-color="#01E4EB"/>
<stop offset="1" stop-color="#3876FD"/>
</linearGradient>
<linearGradient id="paint3_linear_536_203" x1="51.9656" y1="64.7971" x2="0.255618" y2="65.0067" gradientUnits="userSpaceOnUse">
<stop stop-color="#DBC87B"/>
<stop offset="1" stop-color="#1EA8AB"/>
</linearGradient>
<linearGradient id="paint4_linear_536_203" x1="51.6923" y1="50.4516" x2="0.197382" y2="50.6604" gradientUnits="userSpaceOnUse">
<stop stop-color="#ED5385"/>
<stop offset="1" stop-color="#6D37D7"/>
</linearGradient>
<linearGradient id="paint5_linear_536_203" x1="52.2548" y1="32.9118" x2="0.126412" y2="33.1231" gradientUnits="userSpaceOnUse">
<stop stop-color="#FD9C3D"/>
<stop offset="1" stop-color="#C0266E"/>
</linearGradient>
<clipPath id="clip0_536_203">
<rect width="104" height="148" fill="white"/>
</clipPath>
</defs>
</svg>
