<svg aria-hidden="true" style="position: absolute; width: 0; height: 0; overflow: hidden;" version="1.1"
     xmlns="http://www.w3.org/2000/svg" xmlns:xlink="http://www.w3.org/1999/xlink">
    <defs>
            <symbol fill="none" viewBox="0 0 14 8" id="icon-chevron">
                <path d="M0.635987 0.292951C0.823515 0.10548 1.07782 0.000164509 1.34299 0.000164509C1.60815 0.000164509 1.86246 0.10548 2.04999 0.292951L6.99999 5.24295L11.95 0.292951C12.1386 0.110793 12.3912 0.0099988 12.6534 0.0122771C12.9156 0.0145555 13.1664 0.119724 13.3518 0.305132C13.5372 0.490541 13.6424 0.741354 13.6447 1.00355C13.6469 1.26575 13.5461 1.51835 13.364 1.70695L7.70699 7.36395C7.51946 7.55142 7.26515 7.65674 6.99999 7.65674C6.73482 7.65674 6.48051 7.55142 6.29299 7.36395L0.635987 1.70695C0.448516 1.51942 0.343201 1.26512 0.343201 0.999951C0.343201 0.734787 0.448516 0.480479 0.635987 0.292951Z" fill="white"></path>
            </symbol>
            <symbol fill="none" viewBox="0 0 13 11" id="icon-wallet">
                <path d="M11.375 11C12.274 11 13 10.2977 13 9.42799V4.93653C13 3.89532 12.1263 3.05011 11.05 3.05011H2.22435C1.7263 3.05011 1.31688 2.67038 1.3 2.18857C1.31688 1.67409 1.7474 1.26578 2.27922 1.25761H11.05C11.4088 1.25761 11.7 1.53935 11.7 1.88641V2.09874C11.7 2.44581 11.9912 2.72754 12.35 2.72754C12.7088 2.72754 13 2.44581 13 2.09874V1.88641C13 0.845212 12.1263 0 11.05 0H2.22435C0.996104 0 0 0.963623 0 2.15182V8.48478C0 9.87305 1.16493 11 2.6 11H11.375ZM11.7 7.43541H9.45455C9.27727 7.43541 9.13377 7.2925 9.12955 7.12101V6.75353C9.12955 6.57795 9.27305 6.43912 9.45455 6.43912H11.7042V7.43541H11.7ZM1.3 8.48478V4.11173C1.59123 4.24239 1.90357 4.30772 2.22435 4.30772H11.05C11.4088 4.30772 11.7 4.58946 11.7 4.93653V5.17743H9.45455C8.55552 5.17743 7.82955 5.88382 7.82955 6.75353V7.13326C7.83799 7.9948 8.56396 8.68894 9.45455 8.69302H11.7042V9.42799C11.7042 9.60356 11.5607 9.74239 11.3792 9.74239H2.6C1.88247 9.74239 1.3 9.17892 1.3 8.48478Z" fill="#9D9D9D"></path>
            </symbol>
            <symbol fill="none" viewBox="0 0 23 20" id="icon-exchange-arrows">
                <g clip-path="url(#clip0_83_282)">
                    <path d="M7.13742 19.9724L15.0139 5.52829L23 20L7.13742 19.9724Z" fill="white"></path>
                    <path d="M15.8626 0.0276044L7.98547 14.4724L-6.32607e-07 4.1008e-05L15.8626 0.0276044Z" fill="white"></path>
                </g>
                <defs>
                    <clipPath id="clip0_83_282">
                        <rect y="20" width="20" height="23" transform="rotate(-90 0 20)" fill="white"></rect>
                    </clipPath>
                </defs>
            </symbol>
    </defs>
</svg>