<svg aria-hidden="true" style="position: absolute; width: 0; height: 0; overflow: hidden;" version="1.1"
     xmlns="http://www.w3.org/2000/svg" xmlns:xlink="http://www.w3.org/1999/xlink">
    <defs>
            <symbol fill="none" viewBox="0 0 14 8" id="icon-chevron">
                <path d="M0.635987 0.292951C0.823515 0.10548 1.07782 0.000164509 1.34299 0.000164509C1.60815 0.000164509 1.86246 0.10548 2.04999 0.292951L6.99999 5.24295L11.95 0.292951C12.1386 0.110793 12.3912 0.0099988 12.6534 0.0122771C12.9156 0.0145555 13.1664 0.119724 13.3518 0.305132C13.5372 0.490541 13.6424 0.741354 13.6447 1.00355C13.6469 1.26575 13.5461 1.51835 13.364 1.70695L7.70699 7.36395C7.51946 7.55142 7.26515 7.65674 6.99999 7.65674C6.73482 7.65674 6.48051 7.55142 6.29299 7.36395L0.635987 1.70695C0.448516 1.51942 0.343201 1.26512 0.343201 0.999951C0.343201 0.734787 0.448516 0.480479 0.635987 0.292951Z" fill="white"></path>
            </symbol>
            <symbol fill="none" viewBox="0 0 13 11" id="icon-wallet">
                <path d="M11.375 11C12.274 11 13 10.2977 13 9.42799V4.93653C13 3.89532 12.1263 3.05011 11.05 3.05011H2.22435C1.7263 3.05011 1.31688 2.67038 1.3 2.18857C1.31688 1.67409 1.7474 1.26578 2.27922 1.25761H11.05C11.4088 1.25761 11.7 1.53935 11.7 1.88641V2.09874C11.7 2.44581 11.9912 2.72754 12.35 2.72754C12.7088 2.72754 13 2.44581 13 2.09874V1.88641C13 0.845212 12.1263 0 11.05 0H2.22435C0.996104 0 0 0.963623 0 2.15182V8.48478C0 9.87305 1.16493 11 2.6 11H11.375ZM11.7 7.43541H9.45455C9.27727 7.43541 9.13377 7.2925 9.12955 7.12101V6.75353C9.12955 6.57795 9.27305 6.43912 9.45455 6.43912H11.7042V7.43541H11.7ZM1.3 8.48478V4.11173C1.59123 4.24239 1.90357 4.30772 2.22435 4.30772H11.05C11.4088 4.30772 11.7 4.58946 11.7 4.93653V5.17743H9.45455C8.55552 5.17743 7.82955 5.88382 7.82955 6.75353V7.13326C7.83799 7.9948 8.56396 8.68894 9.45455 8.69302H11.7042V9.42799C11.7042 9.60356 11.5607 9.74239 11.3792 9.74239H2.6C1.88247 9.74239 1.3 9.17892 1.3 8.48478Z" fill="#9D9D9D"></path>
            </symbol>
            <symbol fill="none" viewBox="0 0 23 20" id="icon-exchange-arrows">
                <g clip-path="url(#clip0_83_282)">
                    <path d="M7.13742 19.9724L15.0139 5.52829L23 20L7.13742 19.9724Z" fill="white"></path>
                    <path d="M15.8626 0.0276044L7.98547 14.4724L-6.32607e-07 4.1008e-05L15.8626 0.0276044Z" fill="white"></path>
                </g>
                <defs>
                    <clipPath id="clip0_83_282">
                        <rect y="20" width="20" height="23" transform="rotate(-90 0 20)" fill="white"></rect>
                    </clipPath>
                </defs>
            </symbol>
        <symbol viewBox="0 0 582 379" id="icon-sort-up">
            <path d="M20.1 333.1L276.9 21.6C284.2 12.7 297.8 12.7 305.2 21.6L562 333.1C571.8 345 563.4 363.1 547.9 363.1H34.2C18.7 363.1 10.2 345.1 20.1 333.1Z"></path>
            <path d="M30.7 343.7C37 336.1 43.3 328.5 49.5 320.8C65.2 301.7 80.9 282.7 96.7 263.6C117.1 238.9 137.4 214.2 157.8 189.5C178.4 164.6 198.9 139.6 219.5 114.7C235.5 95.3 251.4 76 267.4 56.6C274.1 48.5 280.6 40.2 287.5 32.3C287.8 31.9 290.1 29.8 288.9 30.7C287.5 31.8 292 29.4 290 30.1C288.7 30.6 293.9 30.1 290.4 30.1C293.4 30.1 288.4 30 291.4 30.1C291.6 30.1 293.7 30.8 292 30.2C290.1 29.5 292.6 30.5 292.5 30.5C292.7 30.5 294.5 31.9 293.1 30.8C291.8 29.8 293.5 31.2 293.6 31.4C293.9 31.7 294.2 32.1 294.5 32.4C295 33 295.5 33.6 296 34.2C299.4 38.3 302.8 42.4 306.1 46.5C320.1 63.5 334.1 80.5 348.1 97.5C367.8 121.4 387.5 145.3 407.2 169.2C428.1 194.6 449.1 220 470 245.4C487.4 266.5 504.8 287.6 522.2 308.7C531.4 319.8 540.5 331 549.7 342.1C550.1 342.6 550.6 343.3 551.1 343.8C551.2 343.8 548.6 340.5 549.9 342.3C550.2 342.8 550.5 343.4 550.9 343.9C550.7 343.7 550.3 341.5 550.6 343C550.7 343.5 550.9 344.1 551.1 344.7C551.8 347 551.5 342.8 551 345.2C550.9 345.6 550.6 347.4 551 345.4C551.6 343.1 550.8 345.9 550.7 346.1C549.8 347.4 551.1 345.3 551.2 345.1C550.9 345.6 550.7 346.1 550.4 346.6C550.1 347.1 549.8 347.5 549.5 348C549.8 347.5 550.3 346 550.1 347.1C550 347.4 549.1 348 548.9 348.3C549.3 347.9 550.2 346.6 549.7 347.6C549.5 347.9 548.5 348.2 548.2 348.4C549.1 347.8 550.2 347.6 548.5 348.1C546 348.9 550.4 348.3 547.6 348.2C547.5 348.2 547.5 348.2 547.4 348.2C547 348.2 546.7 348.2 546.3 348.2C544.9 348.2 543.4 348.2 542 348.2C527.4 348.2 512.7 348.2 498.1 348.2C472.9 348.2 447.6 348.2 422.4 348.2C390.8 348.2 359.3 348.2 327.7 348.2C294.5 348.2 261.2 348.2 228 348.2C197.6 348.2 167.3 348.2 136.9 348.2C114 348.2 91 348.2 68.1 348.2C57.1 348.2 46.2 348.3 35.2 348.2C34.9 348.2 34.6 348.2 34.3 348.2C34.2 348.2 34.2 348.2 34.1 348.2C33.9 348.2 34.1 348.1 33.4 348.2C31.8 348.4 33.9 348.3 34.3 348.4C34 348.3 32.7 348.2 32.6 348C32.3 347.4 32.6 347.9 33.5 348.5C33.2 348.3 32.2 348 32 347.7C31.5 346.7 32.4 348 32.8 348.4C32.6 348.1 31.7 347.6 31.6 347.2C31.4 346.1 31.9 347.6 32.2 348.1C31.9 347.6 31.6 347.2 31.3 346.7C31 346.2 30.8 345.7 30.5 345.2C30.6 345.4 31.9 347.5 31 346.2C30.7 345.8 30.8 345.1 30.6 344.6C30.6 344.6 30.9 347.6 30.8 345.8C30.8 345.3 30.9 344.6 30.8 344.1C30.9 344.4 30 346.8 30.6 345.3C30.8 344.7 31.9 341.7 31.1 343.2C30.3 344.8 32.6 341.2 32.9 340.8C37.9 334.4 33.9 324 27.5 320.3C19.8 315.8 11.9 319.2 7.00001 325.7C-1.19999 336.4 -1.19999 352.7 6.60001 363.6C13.2 372.8 22.9 377.9 34.3 378.2C37.1 378.3 39.8 378.2 42.6 378.2C59.2 378.2 75.8 378.2 92.3 378.2C119.4 378.2 146.5 378.2 173.5 378.2C206.3 378.2 239.1 378.2 271.9 378.2C305.8 378.2 339.6 378.2 373.5 378.2C403.2 378.2 433 378.2 462.7 378.2C483.7 378.2 504.6 378.2 525.6 378.2C535.6 378.2 548.6 379.9 558.3 376.5C571.8 371.7 581.6 358.7 581.1 344.1C580.8 335.6 577.4 328.7 572.2 322.3C569.7 319.2 567.1 316.1 564.5 313C551.3 297 538.2 281 525 265.1C505.1 241 485.2 216.8 465.3 192.7C443.9 166.7 422.4 140.7 401 114.7C382.9 92.8 364.8 70.8 346.7 48.9C336.9 37 327.1 25.1 317.3 13.3C307.9 1.9 292.4 -3 278.4 2.8C271.5 5.7 267 10.3 262.5 15.8C251.3 29.4 240.1 43 228.9 56.6C210.1 79.4 191.2 102.3 172.4 125.1C150.8 151.3 129.2 177.5 107.6 203.7C88.4 227 69.2 250.2 50.1 273.5C38.2 287.9 26.3 302.3 14.5 316.7C12.8 318.7 11.2 320.7 9.50001 322.7C4.40001 328.9 3.40001 337.8 9.50001 343.9C14.8 349 25.5 350 30.7 343.7Z"></path>
        </symbol>
        <symbol viewBox="0 0 582 379" id="icon-sort-down">
            <path d="M20.1 45.8L276.9 357.3C284.2 366.2 297.8 366.2 305.2 357.3L562 45.8C571.8 33.9 563.4 15.8 547.9 15.8H34.2C18.7 15.8 10.2 33.8 20.1 45.8Z"></path>
            <path d="M9.5 56.4C16 64.3 22.5 72.1999 29.1 80.0999C45.4 99.8999 61.8 119.7 78.1 139.5C99.1 165 120.1 190.4 141.1 215.9C161.9 241.1 182.6 266.3 203.4 291.4C219 310.3 234.6 329.2 250.2 348.2C258.9 358.8 267.7 373.1 281.5 377.4C295.1 381.6 309 376 317.7 365.5C321.3 361.1 324.9 356.8 328.5 352.4C343.2 334.5 358 316.6 372.7 298.8C393.1 274 413.6 249.2 434 224.4C455.2 198.7 476.4 172.9 497.6 147.2C514.7 126.5 531.8 105.8 548.9 85C556.7 75.5 564.6 66.1999 572.3 56.5999C577.8 49.7999 581.5 42.1 581.1 33.2C580.5 18.6 570.4 5.29996 556.1 1.79996C551.5 0.699959 547.1 0.799959 542.4 0.799959C527.4 0.799959 512.4 0.799959 497.3 0.799959C471.2 0.799959 445.1 0.799959 419 0.799959C386.6 0.799959 354.2 0.799959 321.9 0.799959C288.1 0.799959 254.2 0.799959 220.4 0.799959C189.8 0.799959 159.2 0.799959 128.6 0.799959C106.4 0.799959 84.1 0.799959 61.9 0.799959C52.7 0.799959 43.5 0.499959 34.3 0.799959C22.8 1.09996 12.9 6.4 6.39999 15.9C-1.10001 26.8 -1.00001 42.8 7.19999 53.4C12.1 59.8 20.1 63.2 27.7 58.8C34 55.1 38.1 44.7 33.1 38.3C32.4 37.3 31.8 36.1 31 35.2C31.2 35.4 31.6 37.5999 31.3 36.0999C31.2 35.5999 31 35 30.8 34.4C30.1 32.1 30.4 36.3 30.9 33.9C31 33.5 31.3 31.7 30.9 33.7C30.3 36 31.1 33.2 31.2 33C32.1 31.7 30.8 33.8 30.7 34C31 33.5 31.2 33 31.5 32.5C31.8 32 32.1 31.5999 32.4 31.0999C32.1 31.5999 31.6 33.1 31.8 32C31.9 31.7 32.8 31.1 33 30.8C32.6 31.2 31.7 32.5 32.2 31.5C32.4 31.2 33.4 30.9 33.7 30.7C32.8 31.3 31.7 31.5 33.4 31C35.9 30.2 31.5 30.8 34.3 30.9C34.4 30.9 34.4 30.9 34.5 30.9C34.8 30.9 35.2 30.9 35.5 30.9C39.3 30.9 43.2 30.9 47 30.9C64.7 30.9 82.5 30.9 100.2 30.9C127.4 30.9 154.6 30.9 181.8 30.9C214.2 30.9 246.6 30.9 279 30.9C312 30.9 344.9 30.9 377.9 30.9C406.8 30.9 435.8 30.9 464.7 30.9C485.1 30.9 505.5 30.9 525.9 30.9C531.4 30.9 537 30.9 542.5 30.9C543.9 30.9 545.3 30.9 546.6 30.9C546.9 30.9 547.2 30.9 547.6 30.9C547.7 30.9 547.7 30.9 547.8 30.9C548.2 30.9 548.7 31 549.1 30.9C545.7 31 550.6 31.6 549.1 31C546.8 30.1 551.8 32.8 549.7 31.3C547.6 29.8 551.9 33.7 550.2 31.7C548.9 30.2 550.8 33 551.1 33.4C552 34.6 550.7 32.7 550.7 32.4C550.8 33 551 34 551.3 34.5C551.3 34.5 551 31.5 551.1 33.3C551.1 33.8 551 34.5 551.1 35C551 34.7 551.9 32.3 551.3 33.8C551.1 34.3 551 35 550.9 35.5C550.8 35.9 550 37.4 550.8 35.9C551.7 34.2 550.5 36 550.5 36.2C550.5 36.8 548.5 38.3 550.6 36.2C556.1 30.8 551.6 35 551.4 35.2C550.8 35.7 550.4 36.4999 549.9 37.0999C546.6 41.0999 543.2 45.2 539.9 49.2C525.9 66.1 512 83.1 498 100C478.2 124 458.4 148 438.6 172.1C417.7 197.5 396.7 222.9 375.8 248.3C358.4 269.4 341 290.5 323.6 311.6C314.4 322.7 305.3 333.9 296.1 345C295.6 345.6 295.2 346.1 294.7 346.7C294.1 347.4 293.5 348 292.8 348.7C294.5 347.1 292.5 348.8 291.5 349.3C293.8 348.2 291.4 349.1 290.3 349.3C290.5 349.3 292.9 349 291.2 349C288.9 349 293.7 349.2 291.4 349.2C290.8 349.2 290.1 348.9 289.6 348.7C289.8 348.7 291.9 349.7 290.2 349C289.6 348.7 289.1 348.4 288.5 348C288.8 348.2 290.1 349.5 289 348.3C288.5 347.8 288 347.3 287.6 346.7C285.6 344.4 283.7 341.9 281.7 339.5C269.7 324.9 257.6 310.3 245.6 295.7C226.7 272.8 207.8 249.8 188.9 226.9C167.8 201.3 146.7 175.7 125.6 150.1C107 127.5 88.4 105 69.8 82.4C58.4 68.5 47 54.7 35.5 40.8C33.9 38.9 32.4 36.9999 30.8 35.0999C25.6 28.7999 14.9 29.7999 9.6 35.0999C3.3 41.2999 4.3 50.1 9.5 56.4Z"></path>
        </symbol>
            <symbol fill="none" viewBox="0 0 11 7" id="icon-arrow-down">
                <path d="M0.329198 0.300615C0.481564 0.148294 0.688189 0.0627255 0.903635 0.0627255C1.11908 0.0627255 1.32571 0.148294 1.47807 0.300615L5.49995 4.32249L9.52182 0.300615C9.67506 0.152611 9.8803 0.0707159 10.0933 0.072567C10.3064 0.0744181 10.5102 0.159868 10.6608 0.310512C10.8114 0.461156 10.8969 0.664941 10.8987 0.877976C10.9006 1.09101 10.8187 1.29625 10.6707 1.44949L6.07438 6.0458C5.92202 6.19812 5.71539 6.28369 5.49995 6.28369C5.2845 6.28369 5.07788 6.19812 4.92551 6.0458L0.329198 1.44949C0.176877 1.29712 0.0913086 1.0905 0.0913086 0.875052C0.0913086 0.659606 0.176877 0.452981 0.329198 0.300615Z" fill="white"></path>
            </symbol>
            <symbol fill="none" viewBox="0 0 13 13" id="icon-close">
                <path d="M13 1.80816L11.1918 0L6.5 4.69184L1.80816 0L0 1.80816L4.69184 6.5L0 11.1918L1.80816 13L6.5 8.30816L11.1918 13L13 11.1918L8.30816 6.5L13 1.80816Z" fill="#fff"></path>
            </symbol>
        <symbol id="icon-search" viewBox="0 0 16 16">
            <path d="M14.5 14.5l-.413.412a.583.583 0 0 0 .826-.824l-.413.412zM9.633 9.63l.413-.413-.826.825.413-.412zM1.167 6.125H.582h.584zm4.958-4.958V.583v.584zm4.816 9.772l-.412.412.412-.412zm3.972 3.149l-4.867-4.872-.826.825 4.867 4.871.826-.824zM10.5 6.125c0 1.16-.461 2.273-1.282 3.094l.825.825a5.542 5.542 0 0 0 1.623-3.919H10.5zM9.218 9.219A4.375 4.375 0 0 1 6.125 10.5v1.167c1.47 0 2.88-.584 3.918-1.623l-.825-.825zM6.125 10.5c-1.16 0-2.273-.46-3.094-1.281l-.825.825a5.542 5.542 0 0 0 3.919 1.623V10.5zM3.03 9.219A4.375 4.375 0 0 1 1.75 6.125H.583c0 1.47.584 2.88 1.623 3.919l.825-.825zM1.75 6.125c0-1.16.46-2.273 1.281-3.094l-.825-.825A5.542 5.542 0 0 0 .583 6.125H1.75zM3.03 3.031A4.375 4.375 0 0 1 6.125 1.75V.583c-1.47 0-2.88.584-3.919 1.623l.825.825zM6.125 1.75c1.16 0 2.273.461 3.093 1.281l.825-.825A5.542 5.542 0 0 0 6.125.583V1.75zm3.093 1.281A4.375 4.375 0 0 1 10.5 6.125h1.166c0-1.47-.583-2.88-1.623-3.919l-.825.825zm.002 7.01l1.309 1.31.825-.824-1.308-1.31-.826.824zm1.309 1.31l3.558 3.561.825-.824-3.558-3.561-.825.825z"/>
        </symbol>
            <symbol fill="none"  viewBox="0 0 10 14" id="icon-reverse">
                <g clip-path="url(#clip0_143_401)">
                    <path d="M5.8567 1.86702H1.09779L2.41622 0.512347C2.51918 0.368123 2.48905 0.16724 2.34842 0.0616476C2.24043 -0.0207659 2.09226 -0.0207659 1.98177 0.0590722L0.0932669 1.98549C-0.0297869 2.11168 -0.0297869 2.31514 0.0932669 2.44134L1.98177 4.36775C2.10482 4.49395 2.30321 4.49395 2.42627 4.36775C2.54932 4.24156 2.54932 4.0381 2.42627 3.91191L1.06012 2.51087H5.8567C7.79794 2.51087 9.37252 4.12567 9.37252 6.11647V6.98181C9.37252 7.15951 9.51316 7.30374 9.68644 7.30374C9.85972 7.30374 10.0003 7.15951 10.0003 6.98181V6.10359C9.99784 3.75996 8.1445 1.86444 5.85921 1.86702C5.85921 1.86702 5.85921 1.86702 5.8567 1.86702Z" fill="white"></path>
                    <path d="M8.00854 9.59614C7.88548 9.46994 7.68709 9.46994 7.56404 9.59614C7.44098 9.72233 7.44098 9.92579 7.56404 10.052L8.93019 11.453H4.1336C2.19739 11.4453 0.630336 9.83308 0.630336 7.84743V6.98208C0.630336 6.80438 0.489704 6.66016 0.316424 6.66016C0.143144 6.66016 0 6.80438 0 6.98208V7.85515C0 10.1962 1.84832 12.0943 4.13109 12.0969H8.90256L7.58413 13.4515C7.46107 13.5752 7.46107 13.7786 7.58413 13.9022C7.64189 13.9641 7.72225 13.9975 7.80512 13.9975C7.888 13.9975 7.96836 13.9641 8.02863 13.9022L9.90708 11.9758C10.0301 11.8496 10.0301 11.6462 9.90708 11.52L8.00603 9.59356L8.00854 9.59614Z" fill="white"></path>
                </g>
                <defs>
                    <clipPath id="clip0_143_401">
                        <rect width="10" height="14" fill="white"></rect>
                    </clipPath>
                </defs>
            </symbol>
    </defs>
</svg>