<svg width="40" height="41" viewBox="0 0 40 41" fill="none" xmlns="http://www.w3.org/2000/svg">
<g clip-path="url(#clip0_1038_46769)">
<path d="M20 40.5C31.0457 40.5 40 31.5457 40 20.5C40 9.4543 31.0457 0.5 20 0.5C8.9543 0.5 0 9.4543 0 20.5C0 31.5457 8.9543 40.5 20 40.5Z" fill="#627EEA"/>
<path d="M20.6226 5.5V16.5875L29.9938 20.775L20.6226 5.5Z" fill="white" fill-opacity="0.602"/>
<path d="M20.6225 5.5L11.25 20.775L20.6225 16.5875V5.5Z" fill="white"/>
<path d="M20.6226 27.9595V35.4933L30.0001 22.5195L20.6226 27.9595Z" fill="white" fill-opacity="0.602"/>
<path d="M20.6225 35.4933V27.9583L11.25 22.5195L20.6225 35.4933Z" fill="white"/>
<path d="M20.6226 26.2161L29.9938 20.7748L20.6226 16.5898V26.2161Z" fill="white" fill-opacity="0.2"/>
<path d="M11.25 20.7748L20.6225 26.2161V16.5898L11.25 20.7748Z" fill="white" fill-opacity="0.602"/>
</g>
<defs>
<clipPath id="clip0_1038_46769">
<rect width="40" height="40" fill="white" transform="translate(0 0.5)"/>
</clipPath>
</defs>
</svg>
